# xmcd CD database file
#
# Track frame offsets:
#	150
#	17675
#	35912
#	55591
#	75105
#	88431
#	108190
#	125642
#	146104
#	158147
#	175502
#	194408
#	208863
#	226367
#	240189
#	260445
#
# Disc length: 3933 seconds
#
# Revision: 2
# Processed by: cddbd v1.5.2PL0 Copyright (c) Steve Scherf et al.
# Submitted via: CDex 1.99.1
#
DISCID=d10f5b10
DTITLE=WildCards5 - hot gambling
DYEAR=2006
DGENRE=Country
TTITLE0=01 - WildCards5_ All Just To Get To You
TTITLE1=02 - WildCards5_ Zydeco Jump
TTITLE2=03 - WildCards5_ Baby What You Want Me To Do
TTITLE3=04 - WildCards5_ Dust Down A Country Road
TTITLE4=05 - WildCards5_ Get Back To The Country
TTITLE5=06 - WildCards5_ Dance The Night Away
TTITLE6=07 - WildCards5_ The Way We Make A Broken Heart
TTITLE7=08 - WildCards5_ Save Me
TTITLE8=09 - WildCards5_ Bella Ciao
TTITLE9=10 - WildCards5_ More Than I Can Do
TTITLE10=11 - WildCards5_ One Kiss
TTITLE11=12 - WildCards5_ Livin' It Down
TTITLE12=13 - WildCards5_ Adelaine
TTITLE13=14 - WildCards5_ Shape I'm In
TTITLE14=15 - WildCards5_ Fourth Of July
TTITLE15=16 - WildCards5_ Zydeco Shoes
EXTD=YEAR: 2006
EXTT0=
EXTT1=
EXTT2=
EXTT3=
EXTT4=
EXTT5=
EXTT6=
EXTT7=
EXTT8=
EXTT9=
EXTT10=
EXTT11=
EXTT12=
EXTT13=
EXTT14=
EXTT15=
PLAYORDER=
